<svg width="29" height="29" viewBox="0 0 29 29" fill="none" xmlns="http://www.w3.org/2000/svg">
<path d="M26.75 15.375V22.375C26.75 22.8391 26.5656 23.2842 26.2374 23.6124C25.9092 23.9406 25.4641 24.125 25 24.125H4C3.53587 24.125 3.09075 23.9406 2.76256 23.6124C2.43437 23.2842 2.25 22.8391 2.25 22.375V15.375C2.25 14.9109 2.43437 14.4658 2.76256 14.1376C3.09075 13.8094 3.53587 13.625 4 13.625H8.375C8.60706 13.625 8.82962 13.7172 8.99372 13.8813C9.15781 14.0454 9.25 14.2679 9.25 14.5C9.25 14.7321 9.15781 14.9546 8.99372 15.1187C8.82962 15.2828 8.60706 15.375 8.375 15.375H4V22.375H25V15.375H20.625C20.3929 15.375 20.1704 15.2828 20.0063 15.1187C19.8422 14.9546 19.75 14.7321 19.75 14.5C19.75 14.2679 19.8422 14.0454 20.0063 13.8813C20.1704 13.7172 20.3929 13.625 20.625 13.625H25C25.4641 13.625 25.9092 13.8094 26.2374 14.1376C26.5656 14.4658 26.75 14.9109 26.75 15.375ZM13.8809 15.1191C13.9622 15.2004 14.0587 15.265 14.1649 15.309C14.2712 15.353 14.385 15.3757 14.5 15.3757C14.615 15.3757 14.7288 15.353 14.8351 15.309C14.9413 15.265 15.0378 15.2004 15.1191 15.1191L20.3691 9.86906C20.5332 9.70488 20.6255 9.48219 20.6255 9.25C20.6255 9.01781 20.5332 8.79512 20.3691 8.63094C20.2049 8.46675 19.9822 8.37451 19.75 8.37451C19.5178 8.37451 19.2951 8.46675 19.1309 8.63094L15.375 12.388V3.125C15.375 2.89294 15.2828 2.67038 15.1187 2.50628C14.9546 2.34219 14.7321 2.25 14.5 2.25C14.2679 2.25 14.0454 2.34219 13.8813 2.50628C13.7172 2.67038 13.625 2.89294 13.625 3.125V12.388L9.86906 8.63094C9.70488 8.46675 9.48219 8.37451 9.25 8.37451C9.01781 8.37451 8.79512 8.46675 8.63094 8.63094C8.46675 8.79512 8.37451 9.01781 8.37451 9.25C8.37451 9.48219 8.46675 9.70488 8.63094 9.86906L13.8809 15.1191ZM22.375 18.875C22.375 18.6154 22.298 18.3617 22.1538 18.1458C22.0096 17.93 21.8046 17.7617 21.5648 17.6624C21.3249 17.5631 21.061 17.5371 20.8064 17.5877C20.5518 17.6384 20.318 17.7634 20.1344 17.9469C19.9509 18.1305 19.8259 18.3643 19.7752 18.6189C19.7246 18.8735 19.7506 19.1374 19.8499 19.3773C19.9492 19.6171 20.1175 19.8221 20.3333 19.9663C20.5492 20.1105 20.8029 20.1875 21.0625 20.1875C21.4106 20.1875 21.7444 20.0492 21.9906 19.8031C22.2367 19.5569 22.375 19.2231 22.375 18.875Z" fill="#FAFAFA"/>
</svg>
