<svg width="16" height="17" viewBox="0 0 16 17" fill="none" xmlns="http://www.w3.org/2000/svg">
    <path d="M6.35375 3.14634L11.3537 8.14634C11.4002 8.19278 11.4371 8.24792 11.4623 8.30862C11.4874 8.36932 11.5004 8.43439 11.5004 8.50009C11.5004 8.5658 11.4874 8.63087 11.4623 8.69156C11.4371 8.75226 11.4002 8.80741 11.3537 8.85384L6.35375 13.8538C6.28382 13.9239 6.1947 13.9715 6.09765 13.9909C6.00061 14.0102 5.90002 14.0003 5.8086 13.9624C5.71719 13.9245 5.63908 13.8604 5.58414 13.7781C5.5292 13.6958 5.49992 13.599 5.5 13.5001V3.50009C5.49992 3.40114 5.5292 3.3044 5.58414 3.2221C5.63908 3.1398 5.71719 3.07566 5.8086 3.03778C5.90002 2.99991 6.00061 2.99 6.09765 3.00933C6.1947 3.02865 6.28382 3.07634 6.35375 3.14634Z" fill="#898989"/>
</svg>
