<svg width="20" height="20" viewBox="0 0 20 20" fill="none" xmlns="http://www.w3.org/2000/svg">
<path d="M18.7324 19.484L11.4267 12.1783C10.8434 12.6753 10.1726 13.0599 9.41423 13.3322C8.6559 13.6044 7.89368 13.7405 7.12757 13.7405C5.25934 13.7405 3.67812 13.0938 2.3839 11.8003C1.08968 10.5069 0.442566 8.92606 0.442566 7.05783C0.442566 5.18961 1.0889 3.608 2.38157 2.313C3.67423 1.018 5.25468 0.369722 7.1229 0.368167C8.99112 0.366611 10.5731 1.01372 11.8689 2.3095C13.1647 3.60528 13.8126 5.18689 13.8126 7.05433C13.8126 7.86478 13.6691 8.64917 13.3821 9.4075C13.0951 10.1658 12.7178 10.8145 12.2504 11.3535L19.5561 18.658L18.7324 19.484ZM7.12873 12.5727C8.67651 12.5727 9.98318 12.0399 11.0487 10.9743C12.1143 9.90878 12.6471 8.60172 12.6471 7.05317C12.6471 5.50461 12.1143 4.19794 11.0487 3.13317C9.98318 2.06839 8.67651 1.53561 7.12873 1.53483C5.58095 1.53406 4.2739 2.06683 3.20757 3.13317C2.14123 4.1995 1.60845 5.50617 1.60923 7.05317C1.61001 8.60017 2.14279 9.90683 3.20757 10.9732C4.27234 12.0395 5.57901 12.5723 7.12757 12.5715" fill="#6F6C8F"/>
</svg>
