<svg width="40" height="40" viewBox="0 0 40 40" fill="none" xmlns="http://www.w3.org/2000/svg">
<path d="M28.3333 16.6665H11.6667V19.9998H28.3333V16.6665ZM31.6667 4.99984H30V1.6665H26.6667V4.99984H13.3333V1.6665H10V4.99984H8.33333C6.48333 4.99984 5.01667 6.49984 5.01667 8.33317L5 31.6665C5 32.5506 5.35119 33.3984 5.97631 34.0235C6.60143 34.6487 7.44928 34.9998 8.33333 34.9998H31.6667C33.5 34.9998 35 33.4998 35 31.6665V8.33317C35 6.49984 33.5 4.99984 31.6667 4.99984ZM31.6667 31.6665H8.33333V13.3332H31.6667V31.6665ZM23.3333 23.3332H11.6667V26.6665H23.3333V23.3332Z" fill="#43319A"/>
</svg>
