<svg width="40" height="40" viewBox="0 0 40 40" fill="none" xmlns="http://www.w3.org/2000/svg">
    <path d="M20.0007 38.3332C10.739 36.2748 3.33398 27.5365 3.33398 18.3332V8.33317L20.0007 1.6665L36.6673 8.33317V18.3332C36.6673 27.5398 29.2623 36.2748 20.0007 38.3332ZM6.66732 9.99984V18.3332C6.76256 22.1867 8.11792 25.9029 10.5259 28.9129C12.934 31.923 16.262 34.061 20.0007 34.9998C23.7393 34.061 27.0673 31.923 29.4754 28.9129C31.8834 25.9029 33.2387 22.1867 33.334 18.3332V9.99984L20.0007 4.99984L6.66732 9.99984Z"
          fill="#43319A"/>
    <path d="M20.0007 18.3333C22.3018 18.3333 24.1673 16.4679 24.1673 14.1667C24.1673 11.8655 22.3018 10 20.0007 10C17.6995 10 15.834 11.8655 15.834 14.1667C15.834 16.4679 17.6995 18.3333 20.0007 18.3333Z"
          fill="#43319A"/>
    <path d="M11.666 25C12.4872 26.4972 13.6917 27.7493 15.156 28.6278C16.6203 29.5064 18.2918 29.98 19.9994 30C21.7069 29.98 23.3784 29.5064 24.8427 28.6278C26.307 27.7493 27.5115 26.4972 28.3327 25C28.291 21.84 22.7627 20 19.9994 20C17.221 20 11.7077 21.84 11.666 25Z"
          fill="#43319A"/>
</svg>
