<svg width="40" height="40" viewBox="0 0 40 40" fill="none" xmlns="http://www.w3.org/2000/svg">
    <path d="M9.65052 21.823C9.6547 21.9065 9.64185 21.99 9.61273 22.0684C9.58361 22.1469 9.53885 22.2186 9.48116 22.2791C9.42346 22.3397 9.35405 22.3879 9.27714 22.4208C9.20023 22.4537 9.11743 22.4706 9.03378 22.4705H2.2311C1.95269 22.471 1.68233 22.3772 1.46398 22.2045C1.24563 22.0317 1.09213 21.7902 1.02845 21.5192C0.98879 21.3337 0.990618 21.1417 1.0338 20.957C1.07698 20.7723 1.16044 20.5994 1.27823 20.4507C2.36648 19.0075 3.81041 17.8712 5.469 17.1527C4.74082 16.4887 4.18233 15.66 3.8403 14.7359C3.49827 13.8117 3.38266 12.8191 3.50315 11.841C3.62364 10.863 3.97673 9.92811 4.53284 9.11461C5.08895 8.30112 5.8319 7.63272 6.69945 7.16539C7.567 6.69807 8.5339 6.44543 9.51917 6.42863C10.5044 6.41183 11.4794 6.63136 12.3624 7.06884C13.2453 7.50632 14.0106 8.149 14.5942 8.94307C15.1777 9.73714 15.5624 10.6595 15.7162 11.6328C15.736 11.7637 15.7126 11.8975 15.6494 12.0138C15.5862 12.1302 15.4868 12.2227 15.3662 12.2773C13.6553 13.0682 12.2064 14.332 11.1904 15.9196C10.1744 17.5072 9.63364 19.3522 9.63202 21.237C9.63202 21.4344 9.63202 21.6287 9.65052 21.823ZM37.7124 20.4492C36.6266 19.0076 35.186 17.8719 33.5308 17.1527C34.259 16.4887 34.8175 15.66 35.1595 14.7359C35.5016 13.8117 35.6172 12.8191 35.4967 11.841C35.3762 10.863 35.0231 9.92811 34.467 9.11461C33.9109 8.30112 33.1679 7.63272 32.3004 7.16539C31.4328 6.69807 30.4659 6.44543 29.4807 6.42863C28.4954 6.41183 27.5204 6.63136 26.6375 7.06884C25.7545 7.50632 24.9892 8.149 24.4057 8.94307C23.8222 9.73714 23.4374 10.6595 23.2836 11.6328C23.2638 11.7637 23.2872 11.8975 23.3504 12.0138C23.4136 12.1302 23.513 12.2227 23.6336 12.2773C25.3445 13.0682 26.7934 14.332 27.8094 15.9196C28.8255 17.5072 29.3662 19.3522 29.3678 21.237C29.3678 21.4344 29.3678 21.6287 29.3493 21.823C29.3451 21.9065 29.358 21.99 29.3871 22.0684C29.4162 22.1469 29.461 22.2186 29.5187 22.2791C29.5764 22.3397 29.6458 22.3879 29.7227 22.4208C29.7996 22.4537 29.8824 22.4706 29.9661 22.4705H36.7687C37.0471 22.471 37.3175 22.3772 37.5359 22.2045C37.7542 22.0317 37.9077 21.7902 37.9714 21.5192C38.0113 21.3334 38.0094 21.141 37.966 20.9559C37.9225 20.7709 37.8385 20.5978 37.7201 20.4492H37.7124ZM23.9898 27.1069C25.218 26.1663 26.1205 24.8645 26.5706 23.3845C27.0207 21.9044 26.9957 20.3206 26.4992 18.8555C26.0026 17.3904 25.0594 16.1177 23.8022 15.2163C22.5449 14.315 21.0369 13.8302 19.4899 13.8302C17.9429 13.8302 16.4349 14.315 15.1776 15.2163C13.9204 16.1177 12.9772 17.3904 12.4806 18.8555C11.9841 20.3206 11.9591 21.9044 12.4092 23.3845C12.8593 24.8645 13.7618 26.1663 14.99 27.1069C12.8106 28.0512 10.9908 29.6684 9.797 31.7217C9.68872 31.9092 9.63173 32.122 9.63174 32.3385C9.63175 32.555 9.68877 32.7678 9.79707 32.9553C9.90536 33.1428 10.0611 33.2985 10.2487 33.4068C10.4362 33.515 10.649 33.572 10.8655 33.5719H28.1343C28.3509 33.572 28.5636 33.515 28.7512 33.4068C28.9387 33.2985 29.0945 33.1428 29.2028 32.9553C29.3111 32.7678 29.3681 32.555 29.3681 32.3385C29.3681 32.122 29.3111 31.9092 29.2028 31.7217C28.0065 29.667 26.1833 28.0497 24.0006 27.1069H23.9898Z"
          fill="url(#paint0_linear_4195_5909)"/>
    <defs>
        <linearGradient id="paint0_linear_4195_5909" x1="19.5" y1="6.42773" x2="19.5" y2="33.5719"
                        gradientUnits="userSpaceOnUse">
            <stop stop-color="#3F2B96"/>
            <stop offset="1" stop-color="#A8C0FF"/>
        </linearGradient>
    </defs>
</svg>
