<svg width="184" height="184" viewBox="0 0 184 184" fill="none" xmlns="http://www.w3.org/2000/svg">
<path d="M92.6061 17.2501C55.8521 17.2501 25.6454 45.3331 22.7014 81.1364H15.3338C14.1938 81.1359 13.0794 81.4742 12.1322 82.1084C11.1849 82.7426 10.4476 83.644 10.0137 84.6981C9.5799 85.7523 9.4692 86.9116 9.69569 88.0289C9.92219 89.1461 10.4756 90.1708 11.2858 90.9728L24.1658 103.745C25.2426 104.813 26.6975 105.412 28.2138 105.412C29.73 105.412 31.1849 104.813 32.2618 103.745L45.1418 90.9728C45.9519 90.1708 46.5054 89.1461 46.7318 88.0289C46.9583 86.9116 46.8476 85.7523 46.4138 84.6981C45.98 83.644 45.2426 82.7426 44.2954 82.1084C43.3481 81.4742 42.2337 81.1359 41.0938 81.1364H34.2474C37.1608 51.7654 62.1388 28.7501 92.6061 28.7501C102.651 28.7307 112.533 31.2882 121.308 36.1781C130.082 41.068 137.455 48.1268 142.723 56.6797C143.109 57.3434 143.623 57.9233 144.236 58.385C144.849 58.8468 145.548 59.1811 146.293 59.3684C147.037 59.5556 147.811 59.592 148.57 59.4753C149.328 59.3586 150.056 59.0912 150.709 58.6889C151.363 58.2866 151.929 57.7575 152.375 57.1329C152.821 56.5082 153.138 55.8006 153.306 55.0517C153.474 54.3029 153.49 53.5279 153.354 52.7726C153.218 52.0173 152.932 51.2968 152.513 50.6537C146.218 40.4296 137.405 31.9904 126.919 26.1424C116.432 20.2944 104.613 17.2328 92.6061 17.2501Z" fill="url(#paint0_linear_4139_6644)"/>
<path opacity="0.5" d="M159.781 80.2467C158.705 79.1839 157.254 78.5879 155.741 78.5879C154.229 78.5879 152.777 79.1839 151.701 80.2467L138.767 93.0193C137.955 93.8204 137.399 94.8451 137.171 95.9629C136.943 97.0807 137.052 98.2411 137.485 99.2966C137.918 100.352 138.656 101.255 139.604 101.89C140.551 102.525 141.667 102.864 142.807 102.863H149.7C146.779 132.227 121.709 155.25 91.0957 155.25C81.0194 155.276 71.104 152.722 62.2938 147.832C53.4836 142.941 46.0718 135.877 40.7641 127.312C40.3752 126.654 39.859 126.08 39.2455 125.623C38.632 125.167 37.9337 124.837 37.1913 124.654C36.4489 124.471 35.6774 124.437 34.922 124.556C34.1666 124.674 33.4423 124.942 32.7917 125.344C32.1411 125.746 31.5772 126.273 31.1329 126.896C30.6887 127.518 30.373 128.223 30.2045 128.969C30.0359 129.714 30.0178 130.486 30.1512 131.239C30.2846 131.992 30.5668 132.711 30.9814 133.354C37.3185 143.586 46.1686 152.027 56.6895 157.872C67.2105 163.718 79.0523 166.774 91.0881 166.75C127.957 166.75 158.294 138.69 161.246 102.863H168.667C169.808 102.864 170.923 102.525 171.871 101.89C172.819 101.255 173.556 100.352 173.989 99.2966C174.422 98.2411 174.532 97.0807 174.304 95.9629C174.075 94.8451 173.52 93.8204 172.707 93.0193L159.781 80.2467Z" fill="url(#paint1_linear_4139_6644)"/>
<circle cx="91.3866" cy="90.16" r="32.5067" fill="url(#paint2_linear_4139_6644)"/>
<path d="M107.526 82.431L101.843 76.748L85.2487 92.8877L80.2477 87.8867L74.792 93.3424L85.7033 104.254L107.526 82.431Z" fill="white"/>
<defs>
<linearGradient id="paint0_linear_4139_6644" x1="81.5132" y1="17.25" x2="81.5132" y2="105.412" gradientUnits="userSpaceOnUse">
<stop stop-color="#3F2B96"/>
<stop offset="1" stop-color="#A8C0FF"/>
</linearGradient>
<linearGradient id="paint1_linear_4139_6644" x1="102.241" y1="78.5879" x2="102.241" y2="166.75" gradientUnits="userSpaceOnUse">
<stop stop-color="#3F2B96"/>
<stop offset="1" stop-color="#A8C0FF"/>
</linearGradient>
<linearGradient id="paint2_linear_4139_6644" x1="91.3865" y1="57.6533" x2="91.3865" y2="122.667" gradientUnits="userSpaceOnUse">
<stop stop-color="#3F2B96"/>
<stop offset="1" stop-color="#A8C0FF"/>
</linearGradient>
</defs>
</svg>
