<svg width="34" height="34" viewBox="0 0 34 34" fill="none" xmlns="http://www.w3.org/2000/svg">
<path d="M17 0.75C13.7861 0.75 10.6443 1.70305 7.97199 3.48862C5.29969 5.27419 3.21689 7.81209 1.98696 10.7814C0.757041 13.7507 0.435237 17.018 1.06225 20.1702C1.68926 23.3224 3.23692 26.2179 5.50952 28.4905C7.78212 30.7631 10.6776 32.3107 13.8298 32.9378C16.982 33.5648 20.2493 33.243 23.2186 32.013C26.1879 30.7831 28.7258 28.7003 30.5114 26.028C32.297 23.3557 33.25 20.2139 33.25 17C33.2455 12.6916 31.5319 8.56102 28.4855 5.51454C25.439 2.46806 21.3084 0.75455 17 0.75ZM24.1344 17.8844L19.1344 22.8844C18.8998 23.1189 18.5817 23.2507 18.25 23.2507C17.9183 23.2507 17.6002 23.1189 17.3656 22.8844C17.1311 22.6498 16.9993 22.3317 16.9993 22C16.9993 21.6683 17.1311 21.3502 17.3656 21.1156L20.2328 18.25H10.75C10.4185 18.25 10.1005 18.1183 9.86612 17.8839C9.6317 17.6495 9.50001 17.3315 9.50001 17C9.50001 16.6685 9.6317 16.3505 9.86612 16.1161C10.1005 15.8817 10.4185 15.75 10.75 15.75H20.2328L17.3656 12.8844C17.1311 12.6498 16.9993 12.3317 16.9993 12C16.9993 11.6683 17.1311 11.3502 17.3656 11.1156C17.6002 10.8811 17.9183 10.7493 18.25 10.7493C18.5817 10.7493 18.8998 10.8811 19.1344 11.1156L24.1344 16.1156C24.2506 16.2317 24.3428 16.3696 24.4057 16.5213C24.4686 16.6731 24.501 16.8357 24.501 17C24.501 17.1643 24.4686 17.3269 24.4057 17.4787C24.3428 17.6304 24.2506 17.7683 24.1344 17.8844Z" fill="#071739"/>
</svg>
