<svg width="18" height="18" viewBox="0 0 18 18" fill="none" xmlns="http://www.w3.org/2000/svg">
<path fill-rule="evenodd" clip-rule="evenodd" d="M9.99999 8.15V1C9.99999 0.734784 9.89464 0.48043 9.7071 0.292893C9.51956 0.105357 9.26521 0 8.99999 0C8.73478 0 8.48042 0.105357 8.29289 0.292893C8.10535 0.48043 7.99999 0.734784 7.99999 1V8.15L5.77999 5.374C5.69954 5.2669 5.59839 5.17706 5.48254 5.10981C5.3667 5.04256 5.23853 4.99926 5.10563 4.9825C4.97273 4.96573 4.83782 4.97584 4.70891 5.01221C4.57999 5.04859 4.4597 5.11049 4.35516 5.19425C4.25063 5.27801 4.16399 5.38192 4.10039 5.49981C4.03679 5.61769 3.99752 5.74716 3.98491 5.88051C3.9723 6.01387 3.98661 6.1484 4.027 6.27611C4.06738 6.40383 4.13301 6.52213 4.21999 6.624L8.21999 11.624C8.3137 11.7408 8.43243 11.8351 8.56743 11.8998C8.70243 11.9646 8.85026 11.9982 8.99999 11.9982C9.14973 11.9982 9.29755 11.9646 9.43256 11.8998C9.56756 11.8351 9.68629 11.7408 9.77999 11.624L13.78 6.624C13.867 6.52213 13.9326 6.40383 13.973 6.27611C14.0134 6.1484 14.0277 6.01387 14.0151 5.88051C14.0025 5.74716 13.9632 5.61769 13.8996 5.49981C13.836 5.38192 13.7494 5.27801 13.6448 5.19425C13.5403 5.11049 13.42 5.04859 13.2911 5.01221C13.1622 4.97584 13.0273 4.96573 12.8944 4.9825C12.7615 4.99926 12.6333 5.04256 12.5174 5.10981C12.4016 5.17706 12.3004 5.2669 12.22 5.374L9.99999 8.15Z" fill="black"/>
<path fill-rule="evenodd" clip-rule="evenodd" d="M6.657 12.874L4.358 10H2C1.46957 10 0.960859 10.2107 0.585786 10.5858C0.210714 10.9609 0 11.4696 0 12V16C0 16.5304 0.210714 17.0391 0.585786 17.4142C0.960859 17.7893 1.46957 18 2 18H16C16.5304 18 17.0391 17.7893 17.4142 17.4142C17.7893 17.0391 18 16.5304 18 16V12C18 11.4696 17.7893 10.9609 17.4142 10.5858C17.0391 10.2107 16.5304 10 16 10H13.642L11.342 12.874C11.0609 13.2253 10.7045 13.5089 10.299 13.7037C9.8935 13.8986 9.44938 13.9998 8.9995 13.9998C8.54962 13.9998 8.1055 13.8986 7.70001 13.7037C7.29452 13.5089 6.93806 13.2253 6.657 12.874ZM14 13C13.7348 13 13.4804 13.1054 13.2929 13.2929C13.1054 13.4804 13 13.7348 13 14C13 14.2652 13.1054 14.5196 13.2929 14.7071C13.4804 14.8946 13.7348 15 14 15H14.01C14.2752 15 14.5296 14.8946 14.7171 14.7071C14.9046 14.5196 15.01 14.2652 15.01 14C15.01 13.7348 14.9046 13.4804 14.7171 13.2929C14.5296 13.1054 14.2752 13 14.01 13H14Z" fill="black"/>
</svg>
