<svg width="29" height="28" viewBox="0 0 29 28" fill="none" xmlns="http://www.w3.org/2000/svg">
<path d="M5.75 19.6875C5.75 20.8906 6.53531 21.875 7.5 21.875C7.71114 21.8703 7.91912 21.8226 8.11128 21.735C8.30345 21.6474 8.47578 21.5216 8.61781 21.3653C8.77902 21.2011 8.99842 21.107 9.2285 21.1034C9.45857 21.0998 9.68081 21.187 9.84707 21.3461C10.0133 21.5052 10.1102 21.7233 10.1168 21.9533C10.1234 22.1833 10.0391 22.4067 9.88219 22.575C9.57751 22.903 9.20907 23.1653 8.79945 23.3458C8.38982 23.5264 7.94764 23.6214 7.5 23.625C5.56953 23.625 4 21.8586 4 19.6875C4 17.5164 5.56953 15.75 7.5 15.75C7.94764 15.7536 8.38982 15.8486 8.79945 16.0292C9.20907 16.2097 9.57751 16.472 9.88219 16.8C10.0391 16.9683 10.1234 17.1916 10.1168 17.4217C10.1102 17.6517 10.0133 17.8698 9.84707 18.0289C9.68081 18.188 9.45857 18.2752 9.2285 18.2716C8.99842 18.268 8.77902 18.1739 8.61781 18.0097C8.47578 17.8534 8.30345 17.7276 8.11128 17.64C7.91912 17.5524 7.71114 17.5047 7.5 17.5C6.53531 17.5 5.75 18.4844 5.75 19.6875ZM14.4563 18.737C14.0188 18.6102 13.5659 18.48 13.3133 18.317C13.1766 18.2284 13.1788 18.2077 13.1908 18.1092C13.1927 18.0297 13.2135 17.9519 13.2516 17.882C13.2896 17.8122 13.3438 17.7525 13.4095 17.7078C13.9127 17.3666 15.0873 17.5186 15.5773 17.6466C15.8019 17.7068 16.0411 17.6753 16.2424 17.5591C16.4437 17.4429 16.5907 17.2515 16.6509 17.027C16.7111 16.8024 16.6796 16.5632 16.5634 16.3619C16.4472 16.1605 16.2558 16.0136 16.0312 15.9534C15.7994 15.8933 13.7344 15.3825 12.4394 16.2553C12.1655 16.4391 11.9354 16.6808 11.7653 16.9634C11.5952 17.246 11.4893 17.5624 11.455 17.8905C11.2363 19.6273 12.948 20.1228 13.9706 20.4181C15.2897 20.7998 15.4056 20.9563 15.3684 21.2483C15.3345 21.5119 15.2306 21.6136 15.1344 21.6781C14.6313 22.0128 13.4752 21.8487 12.9961 21.7175C12.7722 21.655 12.5325 21.684 12.33 21.7981C12.1274 21.9123 11.9785 22.1022 11.916 22.3262C11.8535 22.5501 11.8825 22.7897 11.9967 22.9923C12.1108 23.1948 12.3007 23.3437 12.5247 23.4062C13.0672 23.5483 13.6253 23.6218 14.1861 23.625C14.8227 23.625 15.5314 23.5156 16.0991 23.1372C16.3792 22.951 16.6147 22.7051 16.7885 22.417C16.9623 22.129 17.0701 21.8061 17.1042 21.4714C17.3438 19.5781 15.538 19.0498 14.4563 18.737ZM23.5442 15.8014C23.436 15.7627 23.3212 15.7456 23.2064 15.7513C23.0916 15.7569 22.979 15.7851 22.8751 15.8343C22.7712 15.8834 22.678 15.9526 22.6008 16.0378C22.5236 16.123 22.464 16.2225 22.4253 16.3308L21.0625 20.148L19.6986 16.3308C19.6206 16.1122 19.4589 15.9336 19.2492 15.8342C19.0394 15.7348 18.7988 15.7228 18.5802 15.8009C18.3617 15.8789 18.183 16.0406 18.0837 16.2503C17.9843 16.46 17.9723 16.7006 18.0503 16.9192L20.2378 23.0442C20.2985 23.2143 20.4102 23.3614 20.5578 23.4654C20.7053 23.5694 20.8814 23.6252 21.062 23.6252C21.2425 23.6252 21.4186 23.5694 21.5661 23.4654C21.7137 23.3614 21.8254 23.2143 21.8861 23.0442L24.0736 16.9192C24.1515 16.7008 24.1395 16.4604 24.0403 16.2508C23.941 16.0412 23.7626 15.8795 23.5442 15.8014ZM24.125 9.625V12.25C24.125 12.4821 24.0328 12.7046 23.8687 12.8687C23.7046 13.0328 23.4821 13.125 23.25 13.125C23.0179 13.125 22.7954 13.0328 22.6313 12.8687C22.4672 12.7046 22.375 12.4821 22.375 12.25V10.5H17.125C16.8929 10.5 16.6704 10.4078 16.5063 10.2437C16.3422 10.0796 16.25 9.85706 16.25 9.625V4.375H6.625V12.25C6.625 12.4821 6.53281 12.7046 6.36872 12.8687C6.20462 13.0328 5.98206 13.125 5.75 13.125C5.51794 13.125 5.29538 13.0328 5.13128 12.8687C4.96719 12.7046 4.875 12.4821 4.875 12.25V4.375C4.875 3.91087 5.05937 3.46575 5.38756 3.13756C5.71575 2.80937 6.16087 2.625 6.625 2.625H17.125C17.2399 2.62491 17.3538 2.64747 17.46 2.69138C17.5662 2.7353 17.6627 2.79971 17.7441 2.88094L23.8691 9.00594C23.9503 9.08726 24.0147 9.18379 24.0586 9.29001C24.1025 9.39623 24.1251 9.51006 24.125 9.625ZM21.138 8.75L18 5.61203V8.75H21.138Z" fill="#58B651"/>
</svg>
