<svg width="21" height="26" viewBox="0 0 21 26" fill="none" xmlns="http://www.w3.org/2000/svg">
<path d="M11.1588 24.4303L11.1466 24.4325L11.0677 24.4714L11.0455 24.4758L11.0299 24.4714L10.951 24.4325C10.9392 24.4288 10.9303 24.4306 10.9244 24.438L10.9199 24.4492L10.901 24.9247L10.9066 24.9469L10.9177 24.9614L11.0332 25.0436L11.0499 25.048L11.0632 25.0436L11.1788 24.9614L11.1921 24.9436L11.1966 24.9247L11.1777 24.4503C11.1747 24.4384 11.1684 24.4317 11.1588 24.4303ZM11.4532 24.3047L11.4388 24.3069L11.2332 24.4103L11.2221 24.4214L11.2188 24.4336L11.2388 24.9114L11.2444 24.9247L11.2532 24.9325L11.4766 25.0358C11.4906 25.0395 11.5014 25.0366 11.5088 25.0269L11.5132 25.0114L11.4755 24.3292C11.4718 24.3158 11.4644 24.3077 11.4532 24.3047ZM10.6588 24.3069C10.6539 24.304 10.648 24.303 10.6425 24.3042C10.6369 24.3055 10.632 24.3088 10.6288 24.3136L10.6221 24.3292L10.5844 25.0114C10.5851 25.0247 10.5914 25.0336 10.6032 25.038L10.6199 25.0358L10.8432 24.9325L10.8544 24.9236L10.8588 24.9114L10.8777 24.4336L10.8744 24.4203L10.8632 24.4092L10.6588 24.3069Z" fill="#615CB8"/>
<path d="M19.3886 4.14388C19.6833 4.14388 19.9659 4.26094 20.1743 4.46932C20.3827 4.67769 20.4998 4.96031 20.4998 5.25499C20.4998 5.54968 20.3827 5.83229 20.1743 6.04067C19.9659 6.24904 19.6833 6.3661 19.3886 6.3661H18.2775L18.2742 6.44499L17.2375 20.9683C17.1976 21.529 16.9468 22.0537 16.5354 22.4367C16.1241 22.8198 15.5829 23.0328 15.0209 23.0328H5.97753C5.41547 23.0328 4.87427 22.8198 4.46296 22.4367C4.05165 22.0537 3.80077 21.529 3.76087 20.9683L2.7242 6.4461L2.72198 6.3661H1.61087C1.31618 6.3661 1.03357 6.24904 0.825193 6.04067C0.616819 5.83229 0.499756 5.54968 0.499756 5.25499C0.499756 4.96031 0.616819 4.67769 0.825193 4.46932C1.03357 4.26094 1.31618 4.14388 1.61087 4.14388H19.3886ZM12.722 0.810547C13.0167 0.810547 13.2993 0.92761 13.5077 1.13598C13.716 1.34436 13.8331 1.62697 13.8331 1.92166C13.8331 2.21634 13.716 2.49896 13.5077 2.70733C13.2993 2.91571 13.0167 3.03277 12.722 3.03277H8.27753C7.98285 3.03277 7.70023 2.91571 7.49186 2.70733C7.28349 2.49896 7.16642 2.21634 7.16642 1.92166C7.16642 1.62697 7.28349 1.34436 7.49186 1.13598C7.70023 0.92761 7.98285 0.810547 8.27753 0.810547H12.722Z" fill="#FF4D4D"/>
</svg>
