<svg width="21" height="22" viewBox="0 0 21 22" fill="none" xmlns="http://www.w3.org/2000/svg">
<path fill-rule="evenodd" clip-rule="evenodd" d="M10.2876 4.07715H2.8525C1.55254 4.07715 0.499634 5.19359 0.499634 6.56884V19.0249C0.499634 20.4014 1.55254 21.5166 2.8525 21.5166H15.7933C17.0933 21.5166 18.1462 20.4014 18.1462 19.0249V9.90756L13.5416 14.7827C13.1395 15.2127 12.6158 15.5098 12.0405 15.6345L8.88644 16.3027C6.82768 16.7379 5.01362 14.8168 5.42537 12.6381L6.05594 9.29817C6.17005 8.69584 6.45004 8.14173 6.86062 7.70763L10.2876 4.07715Z" fill="#103263"/>
<path fill-rule="evenodd" clip-rule="evenodd" d="M20.318 1.89121C20.1991 1.59008 20.0247 1.31394 19.8039 1.07712C19.5868 0.845512 19.3251 0.660231 19.0345 0.532429C18.7483 0.406711 18.439 0.341797 18.1263 0.341797C17.8137 0.341797 17.5044 0.406711 17.2181 0.532429C16.9275 0.660231 16.6658 0.845512 16.4487 1.07712L15.8064 1.7571L19.1616 5.30993L19.8039 4.62878C20.027 4.39376 20.2017 4.11714 20.318 3.81468C20.5604 3.19643 20.5604 2.50947 20.318 1.89121ZM17.4993 7.07106L14.1429 3.51705L8.52309 9.46981C8.44017 9.55816 8.38425 9.66837 8.36192 9.78745L7.73135 13.1285C7.649 13.5638 8.01251 13.9473 8.42309 13.8603L11.5783 13.1932C11.6931 13.1676 11.7976 13.1082 11.8783 13.0226L17.4993 7.07106Z" fill="#103263"/>
</svg>
