<svg width="16" height="17" viewBox="0 0 16 17" fill="none" xmlns="http://www.w3.org/2000/svg">
    <path d="M13.3541 10.1462L8.35414 5.14625C8.30771 5.09976 8.25256 5.06288 8.19186 5.03772C8.13117 5.01256 8.0661 4.99961 8.00039 4.99961C7.93469 4.99961 7.86962 5.01256 7.80892 5.03772C7.74823 5.06288 7.69308 5.09976 7.64664 5.14625L2.64664 10.1462C2.57664 10.2162 2.52895 10.3053 2.50963 10.4023C2.4903 10.4994 2.50021 10.6 2.53808 10.6914C2.57596 10.7828 2.64011 10.8609 2.7224 10.9159C2.8047 10.9708 2.90145 11.0001 3.00039 11H13.0004C13.0993 11.0001 13.1961 10.9708 13.2784 10.9159C13.3607 10.8609 13.4248 10.7828 13.4627 10.6914C13.5006 10.6 13.5105 10.4994 13.4912 10.4023C13.4718 10.3053 13.4242 10.2162 13.3541 10.1462Z"
          fill="#3B8949"/>
</svg>
