<svg width="29" height="28" viewBox="0 0 29 28" fill="none" xmlns="http://www.w3.org/2000/svg">
<path d="M25 16.625C25 16.8571 24.9078 17.0796 24.7437 17.2437C24.5796 17.4078 24.3571 17.5 24.125 17.5H21.5V19.25H23.25C23.4821 19.25 23.7046 19.3422 23.8687 19.5063C24.0328 19.6704 24.125 19.8929 24.125 20.125C24.125 20.3571 24.0328 20.5796 23.8687 20.7437C23.7046 20.9078 23.4821 21 23.25 21H21.5V22.75C21.5 22.9821 21.4078 23.2046 21.2437 23.3687C21.0796 23.5328 20.8571 23.625 20.625 23.625C20.3929 23.625 20.1704 23.5328 20.0063 23.3687C19.8422 23.2046 19.75 22.9821 19.75 22.75V16.625C19.75 16.3929 19.8422 16.1704 20.0063 16.0063C20.1704 15.8422 20.3929 15.75 20.625 15.75H24.125C24.3571 15.75 24.5796 15.8422 24.7437 16.0063C24.9078 16.1704 25 16.3929 25 16.625ZM10.5625 18.8125C10.5625 19.6247 10.2398 20.4037 9.66551 20.978C9.09118 21.5523 8.31223 21.875 7.5 21.875H6.625V22.75C6.625 22.9821 6.53281 23.2046 6.36872 23.3687C6.20462 23.5328 5.98206 23.625 5.75 23.625C5.51794 23.625 5.29538 23.5328 5.13128 23.3687C4.96719 23.2046 4.875 22.9821 4.875 22.75V16.625C4.875 16.3929 4.96719 16.1704 5.13128 16.0063C5.29538 15.8422 5.51794 15.75 5.75 15.75H7.5C8.31223 15.75 9.09118 16.0727 9.66551 16.647C10.2398 17.2213 10.5625 18.0003 10.5625 18.8125ZM8.8125 18.8125C8.8125 18.4644 8.67422 18.1306 8.42808 17.8844C8.18194 17.6383 7.8481 17.5 7.5 17.5H6.625V20.125H7.5C7.8481 20.125 8.18194 19.9867 8.42808 19.7406C8.67422 19.4944 8.8125 19.1606 8.8125 18.8125ZM18.4375 19.6875C18.4375 20.7318 18.0227 21.7333 17.2842 22.4717C16.5458 23.2102 15.5443 23.625 14.5 23.625H12.75C12.5179 23.625 12.2954 23.5328 12.1313 23.3687C11.9672 23.2046 11.875 22.9821 11.875 22.75V16.625C11.875 16.3929 11.9672 16.1704 12.1313 16.0063C12.2954 15.8422 12.5179 15.75 12.75 15.75H14.5C15.5443 15.75 16.5458 16.1648 17.2842 16.9033C18.0227 17.6417 18.4375 18.6432 18.4375 19.6875ZM16.6875 19.6875C16.6875 19.1073 16.457 18.5509 16.0468 18.1407C15.6366 17.7305 15.0802 17.5 14.5 17.5H13.625V21.875H14.5C15.0802 21.875 15.6366 21.6445 16.0468 21.2343C16.457 20.8241 16.6875 20.2677 16.6875 19.6875ZM4.875 12.25V4.375C4.875 3.91087 5.05937 3.46575 5.38756 3.13756C5.71575 2.80937 6.16087 2.625 6.625 2.625H17.125C17.2399 2.62491 17.3538 2.64747 17.46 2.69138C17.5662 2.7353 17.6627 2.79971 17.7441 2.88094L23.8691 9.00594C23.9503 9.08726 24.0147 9.18379 24.0586 9.29001C24.1025 9.39623 24.1251 9.51006 24.125 9.625V12.25C24.125 12.4821 24.0328 12.7046 23.8687 12.8687C23.7046 13.0328 23.4821 13.125 23.25 13.125C23.0179 13.125 22.7954 13.0328 22.6313 12.8687C22.4672 12.7046 22.375 12.4821 22.375 12.25V10.5H17.125C16.8929 10.5 16.6704 10.4078 16.5063 10.2437C16.3422 10.0796 16.25 9.85706 16.25 9.625V4.375H6.625V12.25C6.625 12.4821 6.53281 12.7046 6.36872 12.8687C6.20462 13.0328 5.98206 13.125 5.75 13.125C5.51794 13.125 5.29538 13.0328 5.13128 12.8687C4.96719 12.7046 4.875 12.4821 4.875 12.25ZM18 8.75H21.138L18 5.61203V8.75Z" fill="#FF4D4D"/>
</svg>
