<svg width="28" height="29" viewBox="0 0 28 29" fill="none" xmlns="http://www.w3.org/2000/svg">
<path d="M24.5 14.5C24.5 14.7321 24.4078 14.9546 24.2437 15.1187C24.0796 15.2828 23.8571 15.375 23.625 15.375H14.875V24.125C14.875 24.3571 14.7828 24.5796 14.6187 24.7437C14.4546 24.9078 14.2321 25 14 25C13.7679 25 13.5454 24.9078 13.3813 24.7437C13.2172 24.5796 13.125 24.3571 13.125 24.125V15.375H4.375C4.14294 15.375 3.92038 15.2828 3.75628 15.1187C3.59219 14.9546 3.5 14.7321 3.5 14.5C3.5 14.2679 3.59219 14.0454 3.75628 13.8813C3.92038 13.7172 4.14294 13.625 4.375 13.625H13.125V4.875C13.125 4.64294 13.2172 4.42038 13.3813 4.25628C13.5454 4.09219 13.7679 4 14 4C14.2321 4 14.4546 4.09219 14.6187 4.25628C14.7828 4.42038 14.875 4.64294 14.875 4.875V13.625H23.625C23.8571 13.625 24.0796 13.7172 24.2437 13.8813C24.4078 14.0454 24.5 14.2679 24.5 14.5Z" fill="#FAFAFA"/>
</svg>
