<svg width="16" height="17" viewBox="0 0 16 17" fill="none" xmlns="http://www.w3.org/2000/svg">
    <path d="M13.3541 6.85375L8.35414 11.8537C8.30771 11.9002 8.25256 11.9371 8.19186 11.9623C8.13117 11.9874 8.0661 12.0004 8.00039 12.0004C7.93469 12.0004 7.86962 11.9874 7.80892 11.9623C7.74823 11.9371 7.69308 11.9002 7.64664 11.8537L2.64664 6.85375C2.57664 6.78382 2.52895 6.6947 2.50963 6.59765C2.4903 6.50061 2.50021 6.40002 2.53808 6.3086C2.57596 6.21719 2.64011 6.13908 2.7224 6.08414C2.8047 6.0292 2.90145 5.99992 3.00039 6H13.0004C13.0993 5.99992 13.1961 6.0292 13.2784 6.08414C13.3607 6.13908 13.4248 6.21719 13.4627 6.3086C13.5006 6.40002 13.5105 6.50061 13.4912 6.59765C13.4718 6.6947 13.4242 6.78382 13.3541 6.85375Z" fill="#DB2729"/>
</svg>
