<svg width="29" height="28" viewBox="0 0 29 28" fill="none" xmlns="http://www.w3.org/2000/svg">
<path d="M17.5624 22.75C17.5624 22.9821 17.4702 23.2046 17.3061 23.3687C17.142 23.5328 16.9195 23.625 16.6874 23.625H13.6249C13.3928 23.625 13.1703 23.5328 13.0062 23.3687C12.8421 23.2046 12.7499 22.9821 12.7499 22.75V16.625C12.7499 16.3929 12.8421 16.1704 13.0062 16.0063C13.1703 15.8422 13.3928 15.75 13.6249 15.75C13.857 15.75 14.0795 15.8422 14.2436 16.0063C14.4077 16.1704 14.4999 16.3929 14.4999 16.625V21.875H16.6874C16.9195 21.875 17.142 21.9672 17.3061 22.1313C17.4702 22.2954 17.5624 22.5179 17.5624 22.75ZM10.6335 15.913C10.54 15.8462 10.4342 15.7985 10.3223 15.7725C10.2104 15.7466 10.0944 15.743 9.98105 15.7619C9.8677 15.7808 9.75919 15.8218 9.6617 15.8826C9.56421 15.9435 9.47966 16.0229 9.41287 16.1164L7.9374 18.1825L6.46193 16.1164C6.39752 16.0173 6.3137 15.9323 6.21553 15.8665C6.11736 15.8006 6.00687 15.7554 5.89073 15.7334C5.77459 15.7115 5.6552 15.7133 5.53978 15.7388C5.42436 15.7642 5.3153 15.8128 5.21917 15.8816C5.12304 15.9504 5.04184 16.0379 4.98047 16.1389C4.9191 16.2399 4.87883 16.3523 4.86209 16.4693C4.84535 16.5863 4.85249 16.7055 4.88308 16.8197C4.91367 16.9338 4.96707 17.0406 5.04006 17.1336L6.86224 19.6875L5.03787 22.2414C4.91509 22.4303 4.86991 22.6593 4.91174 22.8807C4.95357 23.1021 5.07919 23.2988 5.26243 23.4299C5.44567 23.561 5.67241 23.6163 5.89545 23.5844C6.11848 23.5525 6.32061 23.4358 6.45974 23.2586L7.9374 21.1925L9.41287 23.2586C9.55201 23.4358 9.75414 23.5525 9.97717 23.5844C10.2002 23.6163 10.4269 23.561 10.6102 23.4299C10.7934 23.2988 10.919 23.1021 10.9609 22.8807C11.0027 22.6593 10.9575 22.4303 10.8347 22.2414L9.01256 19.6875L10.8369 17.1336C10.9037 17.0401 10.9514 16.9343 10.9774 16.8224C11.0033 16.7105 11.0069 16.5945 10.988 16.4811C10.9691 16.3678 10.9281 16.2593 10.8673 16.1618C10.8064 16.0643 10.727 15.9798 10.6335 15.913ZM21.4551 18.737C21.0176 18.6102 20.5647 18.48 20.3121 18.317C20.1754 18.2273 20.1776 18.2077 20.1896 18.1092C20.1912 18.0297 20.212 17.9517 20.25 17.8818C20.2881 17.812 20.3424 17.7523 20.4083 17.7078C20.9115 17.3666 22.0862 17.5197 22.5762 17.6466C22.8007 17.7056 23.0394 17.673 23.24 17.556C23.4405 17.439 23.5863 17.2471 23.6453 17.0226C23.7043 16.7981 23.6717 16.5593 23.5547 16.3588C23.4377 16.1583 23.2458 16.0125 23.0213 15.9534C22.7905 15.8933 20.7244 15.3825 19.4305 16.2553C19.1577 16.4397 18.9286 16.6817 18.7595 16.9642C18.5903 17.2467 18.4853 17.5629 18.4516 17.8905C18.2329 19.6273 19.9446 20.1228 20.9672 20.4181C22.2863 20.7998 22.4022 20.9563 22.3651 21.2483C22.3312 21.5119 22.2272 21.6125 22.1299 21.6781C21.6268 22.0128 20.4718 21.8477 19.9927 21.7164C19.7686 21.6542 19.529 21.6835 19.3265 21.798C19.2263 21.8547 19.1382 21.9305 19.0673 22.0212C18.9964 22.112 18.944 22.2158 18.9132 22.3267C18.8824 22.4377 18.8737 22.5536 18.8877 22.6679C18.9017 22.7822 18.9381 22.8926 18.9948 22.9929C19.1092 23.1953 19.2994 23.344 19.5235 23.4062C20.0658 23.5491 20.6241 23.6226 21.1849 23.625C21.8215 23.625 22.5302 23.5156 23.0979 23.1372C23.3779 22.951 23.6132 22.705 23.7868 22.4169C23.9604 22.1289 24.068 21.806 24.1019 21.4714C24.3437 19.5781 22.5368 19.0498 21.4551 18.737ZM4.8749 12.25V4.375C4.8749 3.91087 5.05928 3.46575 5.38746 3.13756C5.71565 2.80937 6.16077 2.625 6.6249 2.625H17.1249C17.2398 2.62491 17.3537 2.64747 17.4599 2.69138C17.5661 2.7353 17.6626 2.79971 17.744 2.88094L23.869 9.00594C23.9502 9.08726 24.0146 9.18379 24.0585 9.29001C24.1024 9.39623 24.125 9.51006 24.1249 9.625V12.25C24.1249 12.4821 24.0327 12.7046 23.8686 12.8687C23.7045 13.0328 23.482 13.125 23.2499 13.125C23.0178 13.125 22.7953 13.0328 22.6312 12.8687C22.4671 12.7046 22.3749 12.4821 22.3749 12.25V10.5H17.1249C16.8928 10.5 16.6703 10.4078 16.5062 10.2437C16.3421 10.0796 16.2499 9.85706 16.2499 9.625V4.375H6.6249V12.25C6.6249 12.4821 6.53271 12.7046 6.36862 12.8687C6.20452 13.0328 5.98197 13.125 5.7499 13.125C5.51784 13.125 5.29528 13.0328 5.13118 12.8687C4.96709 12.7046 4.8749 12.4821 4.8749 12.25ZM17.9999 8.75H21.1368L17.9999 5.61203V8.75Z" fill="#58B651"/>
</svg>
