<svg width="27" height="26" viewBox="0 0 27 26" fill="none" xmlns="http://www.w3.org/2000/svg">
<path fill-rule="evenodd" clip-rule="evenodd" d="M2.6665 10.8333V8.66667C2.6665 8.09203 2.89478 7.54093 3.30111 7.1346C3.70743 6.72827 4.25853 6.5 4.83317 6.5H22.1665C22.7411 6.5 23.2922 6.72827 23.6986 7.1346C24.1049 7.54093 24.3332 8.09203 24.3332 8.66667V10.8333C23.7585 10.8333 23.2074 11.0616 22.8011 11.4679C22.3948 11.8743 22.1665 12.4254 22.1665 13C22.1665 13.5746 22.3948 14.1257 22.8011 14.5321C23.2074 14.9384 23.7585 15.1667 24.3332 15.1667V17.3333C24.3332 17.908 24.1049 18.4591 23.6986 18.8654C23.2922 19.2717 22.7411 19.5 22.1665 19.5H4.83317C4.25853 19.5 3.70743 19.2717 3.30111 18.8654C2.89478 18.4591 2.6665 17.908 2.6665 17.3333V15.1667C3.24114 15.1667 3.79224 14.9384 4.19857 14.5321C4.6049 14.1257 4.83317 13.5746 4.83317 13C4.83317 12.4254 4.6049 11.8743 4.19857 11.4679C3.79224 11.0616 3.24114 10.8333 2.6665 10.8333ZM5.9165 8.66667V17.3333H21.0832V8.66667H5.9165ZM8.08317 10.8333H18.9165V15.1667H8.08317V10.8333Z" fill="#103263"/>
</svg>
