<svg width="86" height="62" viewBox="0 0 86 62" fill="none" xmlns="http://www.w3.org/2000/svg">
<path d="M66.2692 61.7694H46.2692V35.2309L53.4231 42.5386C54.6962 43.8463 56.7962 43.8463 58.0692 42.5386C58.6817 41.9035 59.0239 41.0555 59.0239 40.1732C59.0239 39.2909 58.6817 38.443 58.0692 37.8078L45.7308 25.1348C45.3878 24.7793 44.9767 24.4965 44.5221 24.3034C44.0675 24.1103 43.5786 24.0108 43.0846 24.0108C42.5907 24.0108 42.1018 24.1103 41.6471 24.3034C41.1925 24.4965 40.7814 24.7793 40.4385 25.1348L28.0692 37.804C27.4568 38.4391 27.1146 39.287 27.1146 40.1694C27.1146 41.0517 27.4568 41.8996 28.0692 42.5348C29.3423 43.8424 31.4385 43.8424 32.7115 42.5348L39.7154 35.304V61.7694H21.1C9.83462 61.7694 0.692307 52.3463 0.692307 40.7309C0.692307 29.5386 9.19231 20.3848 19.9808 19.7694C22.5269 5.92321 36.6077 -3.69217 51.6269 1.80783C60.6885 5.11552 66.4192 14.3463 66.4192 24.2694H67.0577C77.7654 24.2694 86.2692 33.6924 85.2192 44.9232C84.2846 54.6155 75.7808 61.7694 66.2692 61.7694Z" fill="#103263"/>
</svg>
