<svg width="37" height="23" viewBox="0 0 37 23" fill="none" xmlns="http://www.w3.org/2000/svg">
<path fill-rule="evenodd" clip-rule="evenodd" d="M0.166504 7.83333V4.16667C0.166504 3.19421 0.552812 2.26157 1.24045 1.57394C1.92808 0.886308 2.86071 0.5 3.83317 0.5H33.1665C34.139 0.5 35.0716 0.886308 35.7592 1.57394C36.4469 2.26157 36.8332 3.19421 36.8332 4.16667V7.83333C35.8607 7.83333 34.9281 8.21964 34.2404 8.90728C33.5528 9.59491 33.1665 10.5275 33.1665 11.5C33.1665 12.4725 33.5528 13.4051 34.2404 14.0927C34.9281 14.7804 35.8607 15.1667 36.8332 15.1667V18.8333C36.8332 19.8058 36.4469 20.7384 35.7592 21.4261C35.0716 22.1137 34.139 22.5 33.1665 22.5H3.83317C2.86071 22.5 1.92808 22.1137 1.24045 21.4261C0.552812 20.7384 0.166504 19.8058 0.166504 18.8333V15.1667C1.13896 15.1667 2.0716 14.7804 2.75923 14.0927C3.44686 13.4051 3.83317 12.4725 3.83317 11.5C3.83317 10.5275 3.44686 9.59491 2.75923 8.90728C2.0716 8.21964 1.13896 7.83333 0.166504 7.83333ZM5.6665 4.16667V18.8333H31.3332V4.16667H5.6665ZM9.33317 7.83333H27.6665V15.1667H9.33317V7.83333Z" fill="white"/>
</svg>
