<svg width="19" height="20" viewBox="0 0 19 20" fill="none" xmlns="http://www.w3.org/2000/svg">
<path d="M4.32407 10.0002H6.36111V11.8335H4.32407V10.0002ZM18.5833 4.50016V17.3335C18.5833 18.351 17.6769 19.1668 16.5463 19.1668H2.28704C1.74678 19.1668 1.22865 18.9737 0.846634 18.6299C0.464616 18.286 0.25 17.8197 0.25 17.3335V4.50016C0.25 3.49183 1.16667 2.66683 2.28704 2.66683H3.30556V0.833496H5.34259V2.66683H13.4907V0.833496H15.5278V2.66683H16.5463C17.0866 2.66683 17.6047 2.85998 17.9867 3.2038C18.3687 3.54762 18.5833 4.01393 18.5833 4.50016ZM2.28704 6.3335H16.5463V4.50016H2.28704V6.3335ZM16.5463 17.3335V8.16683H2.28704V17.3335H16.5463ZM12.4722 11.8335H14.5093V10.0002H12.4722V11.8335ZM8.39815 11.8335H10.4352V10.0002H8.39815V11.8335Z" fill="#FAFAFA" fill-opacity="0.8"/>
</svg>
