<svg width="25" height="24" viewBox="0 0 25 24" fill="none" xmlns="http://www.w3.org/2000/svg">
<path d="M17.5 3.33989C19.0083 4.21075 20.2629 5.46042 21.1398 6.96519C22.0167 8.46997 22.4854 10.1777 22.4994 11.9192C22.5135 13.6608 22.0725 15.3758 21.22 16.8946C20.3676 18.4133 19.1332 19.6831 17.6392 20.5782C16.1452 21.4733 14.4434 21.9627 12.7021 21.998C10.9608 22.0332 9.24055 21.6131 7.71155 20.7791C6.18256 19.9452 4.89787 18.7264 3.98467 17.2434C3.07146 15.7604 2.56141 14.0646 2.505 12.3239L2.5 11.9999L2.505 11.6759C2.561 9.94888 3.06355 8.26585 3.96364 6.79089C4.86373 5.31592 6.13065 4.09934 7.64089 3.25977C9.15113 2.42021 10.8531 1.98629 12.581 2.00033C14.3089 2.01437 16.0036 2.47589 17.5 3.33989ZM12.5 5.99989C12.2551 5.99992 12.0187 6.08985 11.8356 6.25261C11.6526 6.41537 11.5357 6.63964 11.507 6.88289L11.5 6.99989V11.9999L11.509 12.1309C11.5318 12.3044 11.5997 12.4689 11.706 12.6079L11.793 12.7079L14.793 15.7079L14.887 15.7899C15.0624 15.926 15.278 15.9998 15.5 15.9998C15.722 15.9998 15.9376 15.926 16.113 15.7899L16.207 15.7069L16.29 15.6129C16.4261 15.4375 16.4999 15.2219 16.4999 14.9999C16.4999 14.7779 16.4261 14.5623 16.29 14.3869L16.207 14.2929L13.5 11.5849V6.99989L13.493 6.88289C13.4643 6.63964 13.3474 6.41537 13.1644 6.25261C12.9813 6.08985 12.7449 5.99992 12.5 5.99989Z" fill="#103263"/>
</svg>
