<svg width="19" height="19" viewBox="0 0 19 19" fill="none" xmlns="http://www.w3.org/2000/svg">
<path fill-rule="evenodd" clip-rule="evenodd" d="M5.5 4.5C5.5 3.43913 5.92143 2.42172 6.67157 1.67157C7.42172 0.921427 8.43913 0.5 9.5 0.5C10.5609 0.5 11.5783 0.921427 12.3284 1.67157C13.0786 2.42172 13.5 3.43913 13.5 4.5C13.5 5.56087 13.0786 6.57828 12.3284 7.32843C11.5783 8.07857 10.5609 8.5 9.5 8.5C8.43913 8.5 7.42172 8.07857 6.67157 7.32843C5.92143 6.57828 5.5 5.56087 5.5 4.5ZM5.5 10.5C4.17392 10.5 2.90215 11.0268 1.96447 11.9645C1.02678 12.9021 0.5 14.1739 0.5 15.5C0.5 16.2956 0.816071 17.0587 1.37868 17.6213C1.94129 18.1839 2.70435 18.5 3.5 18.5H15.5C16.2956 18.5 17.0587 18.1839 17.6213 17.6213C18.1839 17.0587 18.5 16.2956 18.5 15.5C18.5 14.1739 17.9732 12.9021 17.0355 11.9645C16.0979 11.0268 14.8261 10.5 13.5 10.5H5.5Z" fill="#103263"/>
</svg>
